<?xml version="1.0" encoding="UTF-8"?>
<svg version="1.1" xmlns="http://www.w3.org/2000/svg" width="324" height="272">
<path d="M0 0 C19.81831737 14.6194706 31.24056214 37.90152477 35.12475586 61.80639648 C38.16845897 83.11673902 35.13000386 103.83616743 28 124 C27.73960937 124.9178125 27.47921875 125.835625 27.2109375 126.78125 C25.95652679 130.58249458 24.91526456 132.4455475 21.43359375 134.5546875 C19.35694511 135.53599018 17.26768068 136.49094303 15.16796875 137.421875 C2.8767477 143.54475207 -4.51691481 155.21377643 -8.78417969 167.82275391 C-11.44293746 175.29044653 -17.11849228 177.81263118 -23.8125 181.125 C-24.48603516 181.47175781 -25.15957031 181.81851563 -25.85351562 182.17578125 C-38.15766901 188.32197079 -52.84329435 189.1429446 -66.0625 185.375 C-85.63083904 178.23453285 -99.52138618 162.36643489 -108.234375 143.93359375 C-114 131.32205414 -114 131.32205414 -114 127 C-129.31789338 124.87073979 -144.65028597 122.88586821 -160 121 C-160 120.01 -160 119.02 -160 118 C-118.1854819 116.80611597 -118.1854819 116.80611597 -98 117 C-97.67128906 117.94359375 -97.34257813 118.8871875 -97.00390625 119.859375 C-91.57805069 134.77413233 -83.67525064 145.6967972 -69.453125 153.375 C-59.92623753 157.53218726 -47.88612422 157.69134406 -38.0625 154.375 C-36.35232751 153.63358081 -34.66296952 152.84197668 -33 152 C-31.74316406 151.36384766 -31.74316406 151.36384766 -30.4609375 150.71484375 C-13.70148957 141.40115675 -2.27665939 125.03084324 3.359375 106.8828125 C9.71361036 84.47003806 8.50849582 61.87402667 -2.52734375 41.12890625 C-8.8298497 30.43689027 -17.20854357 23.05727533 -29 19 C-42.15480961 15.66858718 -54.62948534 18.46021189 -66.140625 25.09375 C-77.44208604 32.62805736 -85.35993471 42.50057151 -91.30175781 54.66503906 C-93 57 -93 57 -95.27612305 57.58349609 C-96.17886963 57.56367676 -97.08161621 57.54385742 -98.01171875 57.5234375 C-99.06133789 57.51248047 -100.11095703 57.50152344 -101.19238281 57.49023438 C-102.92246582 57.43319336 -102.92246582 57.43319336 -104.6875 57.375 C-105.88600586 57.35501953 -107.08451172 57.33503906 -108.31933594 57.31445312 C-111.75967613 57.25063132 -115.19794187 57.16235105 -118.63739014 57.06433105 C-122.08435696 56.97047425 -125.53168647 56.89552936 -128.9790802 56.81924438 C-139.65378592 56.58291703 -150.32701283 56.30355849 -161 56 C-160.67 55.01 -160.34 54.02 -160 53 C-159.05159492 52.89724007 -159.05159492 52.89724007 -158.08403015 52.79240417 C-151.51262172 52.07779104 -144.94343505 51.34491206 -138.37524414 50.60131836 C-135.92264305 50.32610096 -133.46951146 50.05556946 -131.01586914 49.78979492 C-127.49215618 49.40729364 -123.97068528 49.00806358 -120.44921875 48.60546875 C-119.34913986 48.48970993 -118.24906097 48.37395111 -117.11564636 48.25468445 C-115.58439873 48.07483757 -115.58439873 48.07483757 -114.0222168 47.89135742 C-113.12286911 47.7914299 -112.22352142 47.69150238 -111.29692078 47.58854675 C-108.62022795 46.90268989 -107.68870531 46.15531054 -106 44 C-104.68901024 41.51481941 -103.4529881 39.03585426 -102.25 36.5 C-91.69237444 15.05347277 -77.10745779 -1.0185107 -54 -9 C-35.32793299 -14.4659275 -16.18554443 -10.3920158 0 0 Z " fill="#E8E9E9" transform="translate(200,26)"/>
<path d="M0 0 C6.13217269 4.29458558 10.25774275 9.87345241 13.5703125 16.5625 C13.5703125 17.5525 13.5703125 18.5425 13.5703125 19.5625 C12.31541016 19.56866333 12.31541016 19.56866333 11.03515625 19.57495117 C7.8960319 19.60210999 4.75820811 19.65138144 1.61962891 19.71508789 C-0.39268771 19.74936967 -2.40537969 19.75870775 -4.41796875 19.76757812 C-11.82308533 19.93503051 -17.90772209 20.19678194 -23.4296875 25.5625 C-27.048933 30.43962314 -28.08560361 35.12495212 -27.81640625 41.16796875 C-26.99939159 46.22685753 -24.62684473 49.45293964 -20.8671875 52.9375 C-16.70640095 55.7113577 -13.25898033 55.73880592 -8.35546875 55.87890625 C-7.6716362 55.89968735 -6.98780365 55.92046844 -6.2832489 55.94187927 C-4.1029954 56.00716154 -1.92262345 56.06616017 0.2578125 56.125 C1.73764236 56.16820553 3.21746033 56.21182047 4.69726562 56.25585938 C8.32148872 56.36282083 11.94584439 56.46414823 15.5703125 56.5625 C11.16168535 65.96631606 5.29629211 74.15730497 -4.4296875 78.5625 C-15.9558283 82.73081153 -25.12377577 82.31125902 -36.4296875 77.5625 C-39.70895482 75.4982974 -42.59916603 73.2030947 -45.4296875 70.5625 C-46.00460938 70.03785156 -46.57953125 69.51320313 -47.171875 68.97265625 C-48.4296875 67.5625 -48.4296875 67.5625 -48.4296875 65.5625 C-53.3541057 63.86973124 -56.96375455 65.38931373 -61.4296875 67.5625 C-64.26734498 69.13504991 -67.07863823 70.74207142 -69.87939453 72.37890625 C-75.04669477 75.38850766 -80.33545638 78.0734445 -85.71484375 80.6875 C-88.44589841 82.03492865 -91.09468436 83.48836724 -93.73828125 85 C-107.68613842 92.91431975 -107.68613842 92.91431975 -114.28515625 92.18359375 C-119.58405874 90.64893893 -123.77349438 88.01729071 -126.9296875 83.4375 C-129.24031149 78.72341446 -129.2014171 73.67134992 -128.4296875 68.5625 C-126.6796875 65.125 -126.6796875 65.125 -124.4296875 62.5625 C-123.89714355 61.91651855 -123.36459961 61.27053711 -122.81591797 60.60498047 C-119.52379812 57.78710911 -116.06850367 56.69674575 -112 55.3203125 C-110.7598262 54.8840303 -110.7598262 54.8840303 -109.49459839 54.43893433 C-106.85161594 53.51090329 -104.20364506 52.5983205 -101.5546875 51.6875 C-78.70716921 45.56746483 -78.70716921 45.56746483 -60.4296875 32.5625 C-59.23475592 29.50048784 -58.21192596 26.45374156 -57.26245117 23.31054688 C-53.86167578 12.09501846 -47.85968131 3.95003945 -37.7109375 -2.04296875 C-25.23478829 -8.02950809 -11.78253138 -6.97101535 0 0 Z M-115.2421875 67.5625 C-117.93062305 71.24949733 -118.091896 73.09259265 -117.4296875 77.5625 C-116.51302083 79.64583333 -116.51302083 79.64583333 -114.4296875 80.5625 C-110.97240392 81.31261367 -110.97240392 81.31261367 -107.4296875 80.5625 C-104.71814677 77.64759372 -103.39830991 75.9117363 -103.4921875 71.875 C-104.51859528 69.34319415 -105.20944825 68.14838518 -107.4296875 66.5625 C-111.08663953 65.02273073 -111.95756844 65.22677089 -115.2421875 67.5625 Z " fill="#DCDBD9" transform="translate(253.4296875,172.4375)"/>
<path d="M0 0 C12.18175426 9.09031209 18.88087095 22.47256309 21.3359375 37.3046875 C23.36143084 58.57796289 18.42335264 78.81232761 5.3359375 95.8671875 C-1.94986495 104.29669149 -11.25964376 112.41777458 -22.6640625 114.3046875 C-35.36904775 115.11030507 -44.83788238 114.65581717 -54.9140625 106.1171875 C-66.87551891 94.66193692 -72.47407386 79.80262572 -73.01977539 63.32763672 C-73.22065288 42.25838514 -65.43560315 22.95835485 -51.125 7.59765625 C-36.93268902 -5.62597318 -17.12160015 -10.89556373 0 0 Z M-50.03515625 24.79296875 C-59.65377401 39.62455441 -63.54000989 55.79228556 -60.39453125 73.29296875 C-57.87296603 83.68936867 -52.31879154 92.01611374 -43.6640625 98.3046875 C-37.05712992 102.14184262 -29.33374716 102.52556517 -22.01953125 100.61328125 C-9.51854157 96.02382421 -1.25715949 86.94713633 4.6484375 75.1796875 C11.43670925 59.55001548 12.05009928 43.02688051 6.1171875 27.015625 C2.21442721 18.45123436 -3.20946805 11.67832456 -12.2265625 8.3046875 C-27.66196998 4.22590107 -41.06067221 12.52853464 -50.03515625 24.79296875 Z " fill="#E8E8E9" transform="translate(178.6640625,58.6953125)"/>
<path d="M0 0 C18.02613237 2.4290533 33.29680185 8.88169131 47 21 C47.60070312 21.50660156 48.20140625 22.01320313 48.8203125 22.53515625 C65.63228187 37.8223191 74.77383871 63.05997784 76.140625 85.28686523 C76.9707258 106.589327 74.13268806 129.80096791 62 148 C58.71284536 147.58910567 56.15177138 146.6455282 53.25 145.125 C48.97950995 142.89195749 44.58998527 141.42753644 40 140 C40.1861084 139.4006665 40.3722168 138.80133301 40.56396484 138.18383789 C42.46200733 131.9788837 44.12245823 125.74910292 45.625 119.4375 C45.8415625 118.55642578 46.058125 117.67535156 46.28125 116.76757812 C53.17931627 87.9191837 48.52507207 56.06111799 33.07519531 30.66796875 C24.76237772 17.77215364 13.66689402 8.6927124 0 2 C0 1.34 0 0.68 0 0 Z " fill="#E9E9E9" transform="translate(194,16)"/>
<path d="M0 0 C5.86716264 3.56111263 9.79559685 8.25825532 11.49609375 14.953125 C12.92631137 23.15107344 10.99333328 31.67112608 6.25 38.5 C2.84322672 42.52771225 -0.63730298 45.36201796 -5.9765625 46.375 C-11.15462454 46.69488028 -14.98928714 45.24530964 -19 42 C-23.70341095 36.9152314 -24.73067853 30.7411979 -25 24 C-24.06844256 15.32687904 -21.08890872 8.29567355 -14.37109375 2.625 C-9.89589237 -0.36538979 -5.17636355 -1.32294712 0 0 Z " fill="#E8E9E9" transform="translate(159,91)"/>
<path d="M0 0 C-0.33 5.61 -0.66 11.22 -1 17 C-15.97689853 16.22898849 -30.87476778 14.70319628 -45.79302979 13.20825195 C-49.26805791 12.86065745 -52.74341895 12.51642517 -56.21875 12.171875 C-63.47952027 11.45144506 -70.73984122 10.72656417 -78 10 C-79.95328653 9.80467522 -81.90657416 9.60936143 -83.85986328 9.4140625 C-85.23990927 9.2760458 -86.61995502 9.13802674 -88 9 C-87.67 8.01 -87.34 7.02 -87 6 C-86.34363556 5.95432892 -85.68727112 5.90865784 -85.01101685 5.86160278 C-78.03233064 5.37582345 -71.05373901 4.88870112 -64.07519531 4.40087891 C-61.48830415 4.22021222 -58.90139088 4.03986164 -56.31445312 3.85986328 C-41.55939931 2.83297579 -26.80756859 1.78191491 -12.06375122 0.60305786 C-11.0589975 0.52377045 -10.05424377 0.44448303 -9.01904297 0.36279297 C-7.70418411 0.257397 -7.70418411 0.257397 -6.36276245 0.14987183 C-4.24550843 0.01557279 -2.1215091 0 0 0 Z " fill="#E9EAEB" transform="translate(99,105)"/>
<path d="M0 0 C-1.60033492 3.20066984 -4.75969899 3.70013124 -7.96875 5 C-10.16560255 5.82709949 -10.16560255 5.82709949 -11 8 C-13.31 7.67 -15.62 7.34 -18 7 C-16.35 7.66 -14.7 8.32 -13 9 C-14.875 13.875 -14.875 13.875 -16 15 C-15.525625 15.4125 -15.05125 15.825 -14.5625 16.25 C-12.72363173 18.30953247 -12.30408109 19.26327015 -12 22 C-12.25 25.625 -12.25 25.625 -13 29 C-13.99 29.66 -14.98 30.32 -16 31 C-15.87431641 30.09507812 -15.87431641 30.09507812 -15.74609375 29.171875 C-15.64425781 28.37265625 -15.54242188 27.5734375 -15.4375 26.75 C-15.33308594 25.96109375 -15.22867188 25.1721875 -15.12109375 24.359375 C-14.99972651 21.99467126 -15.30366743 20.2488963 -16 18 C-20.9127666 16.7581672 -20.9127666 16.7581672 -25.4375 18.5 C-27.61217708 21.97948332 -27.62717146 23.95822837 -27 28 C-25.53144506 30.32224778 -23.93765779 32.01390076 -22 34 C-24.58470444 33.63075651 -26.04579142 32.96729184 -28.1875 31.4375 C-30.80048553 27.92348497 -30.79213114 25.36524616 -31 21 C-29.53966649 16.61899946 -26.68438886 13.95600449 -22.6875 11.6875 C-22.130625 11.460625 -21.57375 11.23375 -21 11 C-21 10.34 -21 9.68 -21 9 C-22.29585916 9.42492126 -23.5866044 9.86545882 -24.875 10.3125 C-25.95394531 10.67794922 -25.95394531 10.67794922 -27.0546875 11.05078125 C-29.33994905 11.96335547 -29.33994905 11.96335547 -31 15 C-31.99 15.33 -32.98 15.66 -34 16 C-36.63422729 22.05872276 -35.86050357 27.56948005 -35 34 C-34.34 34 -33.68 34 -33 34 C-32.67 34.66 -32.34 35.32 -32 36 C-26.31434068 38.89451747 -22.65259392 39.33373832 -16.46875 37.81640625 C-12.74642394 36.58544716 -9.45350115 34.8500899 -6 33 C-5.34 33 -4.68 33 -4 33 C-4 32.34 -4 31.68 -4 31 C-2.99582031 30.50371094 -1.99164063 30.00742188 -0.95703125 29.49609375 C5.74615752 26.17086392 12.42024502 22.81435611 19 19.25 C20.04285156 18.68667969 21.08570313 18.12335938 22.16015625 17.54296875 C23.90218483 16.59647454 25.64018742 15.64246535 27.37109375 14.67578125 C31.39805552 12.50624608 34.42138709 11.18602437 39 12 C41.8420375 13.87158567 43.97331028 15.97186759 46.3125 18.4375 C54.11898634 25.88089396 62.28143991 28.36241008 72.9375 28.125 C73.71673828 28.11597656 74.49597656 28.10695312 75.29882812 28.09765625 C77.19935447 28.07433691 79.09972008 28.03847586 81 28 C81 28.66 81 29.32 81 30 C70.94157013 33.35280996 62.75089083 32.09561227 53 28 C49.72073268 25.9357974 46.83052147 23.6405947 44 21 C43.42507812 20.47535156 42.85015625 19.95070312 42.2578125 19.41015625 C41 18 41 18 41 16 C36.0755818 14.30723124 32.46593295 15.82681373 28 18 C25.16234252 19.57254991 22.35104927 21.17957142 19.55029297 22.81640625 C14.38299273 25.82600766 9.09423112 28.5109445 3.71484375 31.125 C0.98378909 32.47242865 -1.66499686 33.92586724 -4.30859375 35.4375 C-18.25645092 43.35181975 -18.25645092 43.35181975 -24.85546875 42.62109375 C-30.15437124 41.08643893 -34.34380688 38.45479071 -37.5 33.875 C-39.81062399 29.16091446 -39.7717296 24.10884992 -39 19 C-37.25 15.5625 -37.25 15.5625 -35 13 C-34.42580322 12.34104736 -33.85160645 11.68209473 -33.26000977 11.00317383 C-30.51561214 8.57065979 -28.03976109 7.61797347 -24.58984375 6.38671875 C-22.73456055 5.7225293 -22.73456055 5.7225293 -20.84179688 5.04492188 C-20.20105225 4.82247803 -19.56030762 4.60003418 -18.90014648 4.37084961 C-16.934724 3.68653346 -14.97813872 2.98043133 -13.02148438 2.27148438 C-3.38990074 -1.12996691 -3.38990074 -1.12996691 0 0 Z " fill="#E3E3E4" transform="translate(164,222)"/>
<path d="M0 0 C2.53344832 2.23886131 4.11621695 4.17432542 6 7 C5.34 7.33 4.68 7.66 4 8 C3.360625 7.278125 2.72125 6.55625 2.0625 5.8125 C-2.64761922 1.08896164 -8.84539022 -1.64025134 -15 -4 C-15.69996094 -4.28101563 -16.39992187 -4.56203125 -17.12109375 -4.8515625 C-32.30506315 -9.92142075 -48.50388533 -7.95864552 -63 -2 C-63.77085937 -1.84402344 -64.54171875 -1.68804687 -65.3359375 -1.52734375 C-65.88507813 -1.35332031 -66.43421875 -1.17929687 -67 -1 C-67.33 -0.01 -67.66 0.98 -68 2 C-69.65 2.33 -71.3 2.66 -73 3 C-73 2.01 -73 1.02 -73 0 C-48.25093222 -13.0732215 -24.62501799 -15.8376071 0 0 Z " fill="#F2F4F5" transform="translate(200,26)"/>
<path d="M0 0 C0.99 0.33 1.98 0.66 3 1 C1.25337575 2.83855184 -0.40985508 4.28689856 -2.5 5.75 C-6.27790541 9.15011487 -7.67205246 12.51239791 -8.3203125 17.4296875 C-8.59787202 23.51749306 -7.62531402 27.10092699 -4 32 C0.90786597 36.54875382 4.50342729 37.12866935 11.07421875 37.31640625 C11.7580513 37.33718735 12.44188385 37.35796844 13.1464386 37.37937927 C15.3266921 37.44466154 17.50706405 37.50366017 19.6875 37.5625 C21.16732986 37.60570553 22.64714783 37.64932047 24.12695312 37.69335938 C27.75117622 37.80032083 31.37553189 37.90164823 35 38 C33.68 40.64 32.36 43.28 31 46 C30.01 45.505 30.01 45.505 29 45 C29.66 43.35 30.32 41.7 31 40 C21.1 40.33 11.2 40.66 1 41 C0.505 39.515 0.505 39.515 0 38 C-0.77859375 37.690625 -1.5571875 37.38125 -2.359375 37.0625 C-6.96314875 35.21009399 -8.89582317 31.33407492 -11 27 C-12.90159269 20.6847106 -12.142011 15.30288795 -9.4453125 9.34375 C-7.06145731 5.47803888 -3.96522338 2.25537346 0 0 Z " fill="#E5E6E6" transform="translate(234,191)"/>
<path d="M0 0 C0.99 0.33 1.98 0.66 3 1 C9.9156652 16.84358082 8.83930672 36.99237428 3 53 C0.2203208 59.60497865 -3.02310639 66.03465958 -7 72 C-7.99 71.67 -8.98 71.34 -10 71 C-9.70867187 70.51273437 -9.41734375 70.02546875 -9.1171875 69.5234375 C-0.5222861 54.658042 3.07606919 41.36095744 3.3125 24.3125 C3.33932861 23.01203735 3.33932861 23.01203735 3.36669922 21.68530273 C3.35748828 14.75407277 2.12140015 8.2428003 -1 2 C-0.67 1.34 -0.34 0.68 0 0 Z " fill="#F0F0F1" transform="translate(193,80)"/>
<path d="M0 0 C13.78349271 1.85735008 25.03337981 6.12884389 37 13 C35 15 35 15 31.5625 15.0625 C30.386875 15.041875 29.21125 15.02125 28 15 C27.01 15.33 26.02 15.66 25 16 C20.13532512 14.84532296 16.4730646 12.4833159 12.5 9.5625 C8.49011118 6.64318664 4.5057763 4.11038619 0 2 C0 1.34 0 0.68 0 0 Z " fill="#E7E7E9" transform="translate(194,16)"/>
<path d="M0 0 C0 0.33 0 0.66 0 1 C-1.26457031 1.06058594 -2.52914062 1.12117187 -3.83203125 1.18359375 C-5.49219871 1.26800904 -7.15235437 1.35265655 -8.8125 1.4375 C-10.06256836 1.49647461 -10.06256836 1.49647461 -11.33789062 1.55664062 C-12.14033203 1.59853516 -12.94277344 1.64042969 -13.76953125 1.68359375 C-14.87711792 1.73858032 -14.87711792 1.73858032 -16.00708008 1.79467773 C-18.207495 1.94842141 -18.207495 1.94842141 -21 3 C-20.01 4.485 -20.01 4.485 -19 6 C-20.2065625 5.566875 -20.2065625 5.566875 -21.4375 5.125 C-26.82716203 4.93588905 -29.93655743 7.67184704 -34 11 C-37.31279271 14.39773611 -38.72838312 17.44337284 -40 22 C-40.66 22 -41.32 22 -42 22 C-42.33 23.65 -42.66 25.3 -43 27 C-43.66 27 -44.32 27 -45 27 C-44.57339202 18.89444836 -39.55157021 12.14732844 -33.875 6.6875 C-24.26447007 -1.24883376 -11.83352314 -5.34763568 0 0 Z " fill="#E4E5E6" transform="translate(242,169)"/>
<path d="M0 0 C0.99 0 1.98 0 3 0 C5.74665883 11.08473028 6.66054854 21.59283487 6 33 C5.505 33.495 5.505 33.495 5 34 C4.63239269 36.32817964 4.29758419 38.6618385 4 41 C1.64521032 37.46781549 1.78654555 36.10293103 1.875 31.93359375 C1.89046875 30.72509766 1.9059375 29.51660156 1.921875 28.27148438 C1.97340138 25.74282713 2.02547255 23.21418092 2.078125 20.68554688 C2.1692578 13.51263611 1.81186496 6.95727835 0 0 Z " fill="#F0F3F3" transform="translate(264,84)"/>
<path d="M0 0 C4.80452538 2.2727494 6.76238916 5.39863284 9.0625 10 C9.40539062 10.66918457 9.74828125 11.33836914 10.1015625 12.02783203 C14.46516814 20.70319439 17.64583472 28.15102051 17 38 C14.75121113 35.75121113 14.35945617 33.99146314 13.55859375 30.98046875 C12.59632326 27.56878248 11.28141436 24.301877 10 21 C9.71253906 20.20335938 9.42507812 19.40671875 9.12890625 18.5859375 C7.08920499 13.11852249 4.58802164 8.54775277 1.171875 3.8125 C0 2 0 2 0 0 Z " fill="#F0F2F2" transform="translate(215,44)"/>
<path d="M0 0 C12.23550047 1.79864224 22.32497838 5.80559674 33 12 C32.34 12.66 31.68 13.32 31 14 C30.15179688 13.54109375 29.30359375 13.0821875 28.4296875 12.609375 C21.00853251 8.69552935 14.05579336 5.88882015 5.86328125 3.921875 C3.0318843 3.01026561 1.82270033 2.29286685 0 0 Z " fill="#F7F8FA" transform="translate(198,17)"/>
<path d="M0 0 C0.33 0.66 0.66 1.32 1 2 C1.69480469 1.83628906 2.38960937 1.67257813 3.10546875 1.50390625 C6.2352816 0.95904004 9.13798083 0.90261517 12.3125 0.9375 C13.91544922 0.95103516 13.91544922 0.95103516 15.55078125 0.96484375 C16.35902344 0.97644531 17.16726562 0.98804687 18 1 C18 1.66 18 2.32 18 3 C19.98 3 21.96 3 24 3 C24.33 3.66 24.66 4.32 25 5 C23 8 23 8 20.0625 8.8125 C17 9 17 9 14 7 C14.99 6.34 15.98 5.68 17 5 C17 4.01 17 3.02 17 2 C16.01580078 2.22623047 16.01580078 2.22623047 15.01171875 2.45703125 C11.29168598 3.12769864 7.57845039 3.43189251 3.8125 3.6875 C3.08869141 3.74744141 2.36488281 3.80738281 1.61914062 3.86914062 C-0.25010916 3.99607573 -2.12645567 4.00623822 -4 4 C-4.66 3.34 -5.32 2.68 -6 2 C-4.02 2 -2.04 2 0 2 C0 1.34 0 0.68 0 0 Z " fill="#F1F1F3" transform="translate(41,109)"/>
<path d="M0 0 C0.66 0.99 1.32 1.98 2 3 C-1.17483445 5.1165563 -1.66699005 5.22929149 -5.23046875 4.9765625 C-6.03291016 4.925 -6.83535156 4.8734375 -7.66210938 4.8203125 C-8.91217773 4.72363281 -8.91217773 4.72363281 -10.1875 4.625 C-11.4549707 4.53992188 -11.4549707 4.53992188 -12.74804688 4.453125 C-14.83271217 4.31179176 -16.91646866 4.1571675 -19 4 C-18.67 3.01 -18.34 2.02 -18 1 C-15.04213336 0.75201724 -12.08538702 0.52588146 -9.125 0.3125 C-8.28324219 0.23966797 -7.44148438 0.16683594 -6.57421875 0.09179688 C-5.76855469 0.03701172 -4.96289062 -0.01777344 -4.1328125 -0.07421875 C-3.01737061 -0.16062622 -3.01737061 -0.16062622 -1.87939453 -0.2487793 C-1.25919434 -0.16668213 -0.63899414 -0.08458496 0 0 Z " fill="#F2F4F7" transform="translate(30,110)"/>
<path d="M0 0 C0.33 0 0.66 0 1 0 C2.07581362 8.96511348 -2.08982077 17.63473115 -7 25 C-7.99 25 -8.98 25 -10 25 C-10 24.01 -10 23.02 -10 22 C-9.34 21.67 -8.68 21.34 -8 21 C-6.96870324 18.88504846 -6.96870324 18.88504846 -6.0546875 16.30859375 C-5.70019531 15.36435547 -5.34570312 14.42011719 -4.98046875 13.44726562 C-4.43326172 11.95743164 -4.43326172 11.95743164 -3.875 10.4375 C-3.50246094 9.44041016 -3.12992187 8.44332031 -2.74609375 7.41601562 C-1.82437922 4.94629336 -0.90933919 2.47429993 0 0 Z " fill="#EEF0F1" transform="translate(263,139)"/>
<path d="M0 0 C5.84405947 0 8.83682714 2.99860443 12.87109375 6.80078125 C15.70521711 9.72850868 17.93032074 12.48154526 20 16 C19.67 16.99 19.34 17.98 19 19 C15.44226614 17.22113307 14.21265232 13.63795695 13 10 C11.15028304 8.94978897 11.15028304 8.94978897 9 8 C6.75 6.5 6.75 6.5 5 5 C5 4.34 5 3.68 5 3 C3.35 2.67 1.7 2.34 0 2 C0 1.34 0 0.68 0 0 Z " fill="#F0F1F2" transform="translate(172,57)"/>
<path d="M0 0 C-1.32 0.33 -2.64 0.66 -4 1 C-4 1.66 -4 2.32 -4 3 C-4.66 3.556875 -5.32 4.11375 -6 4.6875 C-8.28926395 6.92869047 -8.28926395 6.92869047 -8.5625 10.375 C-7.83271916 15.07803205 -6.277931 16.64012072 -3 20 C-5.58470444 19.63075651 -7.04579142 18.96729184 -9.1875 17.4375 C-11.80048553 13.92348497 -11.79213114 11.36524616 -12 7 C-10.00144272 1.00432816 -6.02534085 -0.56049682 0 0 Z " fill="#E7E8E8" transform="translate(145,236)"/>
<path d="M0 0 C0 0.33 0 0.66 0 1 C2.97 1.495 2.97 1.495 6 2 C6 2.66 6 3.32 6 4 C-0.93 4 -7.86 4 -15 4 C-14.67 3.01 -14.34 2.02 -14 1 C-4.58997722 -0.14806378 -4.58997722 -0.14806378 0 0 Z " fill="#DFE2E7" transform="translate(54,78)"/>
<path d="M0 0 C0.66 0.33 1.32 0.66 2 1 C1.5140424 7.96539226 -0.6989415 14.86056506 -4 21 C-6.16796875 21.8828125 -6.16796875 21.8828125 -8 22 C-8 21.34 -8 20.68 -8 20 C-7.34 20 -6.68 20 -6 20 C-5.7525 18.741875 -5.505 17.48375 -5.25 16.1875 C-4.02166198 10.59767191 -2.05312625 5.33214826 0 0 Z " fill="#EEF0F1" transform="translate(229,137)"/>
<path d="M0 0 C3.51969308 0.65179502 5.95604831 2.15947107 9 4 C10.2221818 4.53701928 11.4517686 5.05743965 12.6875 5.5625 C16 7 16 7 18 9 C18.99 9 19.98 9 21 9 C21 10.65 21 12.3 21 14 C17.22861009 12.64875335 14.28575211 10.93029184 11.0625 8.5625 C7.4705534 5.98531858 4.03028658 3.80302295 0 2 C0 1.34 0 0.68 0 0 Z " fill="#ECEEF0" transform="translate(194,16)"/>
<path d="M0 0 C0 3 0 3 -1.875 5.3125 C-4.1236957 8.15643867 -5.0329822 10.53485288 -6 14 C-4.35 14.33 -2.7 14.66 -1 15 C-4 18 -7 21 -10 24 C-9.11424157 14.11921203 -7.10346108 7.10346108 0 0 Z " fill="#E0E1E3" transform="translate(144,94)"/>
<path d="M0 0 C0 1.98 0 3.96 0 6 C-0.66 6 -1.32 6 -2 6 C-1.67 4.68 -1.34 3.36 -1 2 C-1.66 2 -2.32 2 -3 2 C-3 3.65 -3 5.3 -3 7 C-3.66 6.67 -4.32 6.34 -5 6 C-4.67 4.68 -4.34 3.36 -4 2 C-15.88 2.99 -15.88 2.99 -28 4 C-28.33 3.34 -28.66 2.68 -29 2 C-24.91687687 1.66405814 -20.83346991 1.33169789 -16.75 1 C-15.59113281 0.90460938 -14.43226562 0.80921875 -13.23828125 0.7109375 C-12.12324219 0.62070313 -11.00820312 0.53046875 -9.859375 0.4375 C-8.31975098 0.31181641 -8.31975098 0.31181641 -6.74902344 0.18359375 C-4.50351891 0.03362755 -2.25050671 0 0 0 Z " fill="#E1E2E5" transform="translate(99,105)"/>
<path d="M0 0 C-1.32 2.64 -2.64 5.28 -4 8 C-4.66 7.67 -5.32 7.34 -6 7 C-5.34 5.35 -4.68 3.7 -4 2 C-12.58 2 -21.16 2 -30 2 C-30 1.67 -30 1.34 -30 1 C-26.31261278 0.83077535 -22.62507482 0.66508199 -18.9375 0.5 C-17.89916016 0.45230469 -16.86082031 0.40460938 -15.79101562 0.35546875 C-10.52138728 0.12126305 -5.27482453 -0.05985616 0 0 Z " fill="#F1F2F3" transform="translate(269,229)"/>
<path d="M0 0 C0.66 0.33 1.32 0.66 2 1 C-2.19706794 6.28568244 -6.57258984 11.44300857 -13 14 C-13.99 13.67 -14.98 13.34 -16 13 C-14.60387736 10.20775471 -12.69511726 9.55717886 -10 8 C-6.2385472 5.62030537 -3.03243297 3.26569705 0 0 Z " fill="#E8E9EA" transform="translate(262,237)"/>
<path d="M0 0 C1.10370043 3.3111013 0.92673641 5.24748949 0.5625 8.6875 C0.40974609 10.17830078 0.40974609 10.17830078 0.25390625 11.69921875 C0.12822266 12.83810547 0.12822266 12.83810547 0 14 C0.66 14 1.32 14 2 14 C4 18 6 22 8 26 C3.13969515 23.92737533 1.11108519 20.74206449 -1 16 C-2.37473841 10.2719233 -2.44503335 5.46536867 0 0 Z " fill="#EDEDED" transform="translate(224,202)"/>
<path d="M0 0 C-0.66 0.66 -1.32 1.32 -2 2 C-4.72869407 1.96712417 -7.2966618 1.43602229 -10 1 C-10.33 1.99 -10.66 2.98 -11 4 C-15.62 3.01 -20.24 2.02 -25 1 C-25 0.67 -25 0.34 -25 0 C-16.53095523 -1.29526567 -8.49208584 -0.73598077 0 0 Z " fill="#F6F6F7" transform="translate(74,145)"/>
<path d="M0 0 C1.2153524 3.64605721 0.61321656 5.04034608 -0.4375 8.6875 C-1.77278693 13.68268702 -2.29685606 17.85449504 -2 23 C-2.99 23.33 -3.98 23.66 -5 24 C-5.21105398 18.75088334 -4.50470744 14.20278885 -3.0625 9.1875 C-2.78889648 8.18686523 -2.78889648 8.18686523 -2.50976562 7.16601562 C-1.81945574 4.67838982 -1.15737384 2.31474768 0 0 Z " fill="#EFF0F1" transform="translate(120,94)"/>
<path d="M0 0 C1.96093203 4.72930665 2.24690188 8.01239248 1 13 C0.01 13.66 -0.98 14.32 -2 15 C-1.91621094 14.39671875 -1.83242187 13.7934375 -1.74609375 13.171875 C-1.59333984 11.97304687 -1.59333984 11.97304687 -1.4375 10.75 C-1.33308594 9.96109375 -1.22867188 9.1721875 -1.12109375 8.359375 C-0.99788281 5.95874887 -1.16840235 4.25079123 -2 2 C-2.66 1.67 -3.32 1.34 -4 1 C-2 0 -2 0 0 0 Z " fill="#E4E4E5" transform="translate(150,238)"/>
<path d="M0 0 C4.62 2.31 9.24 4.62 14 7 C13.34 7.66 12.68 8.32 12 9 C7.71 7.02 3.42 5.04 -1 3 C-0.67 2.01 -0.34 1.02 0 0 Z " fill="#F0F2F4" transform="translate(217,22)"/>
<path d="M0 0 C-0.99 0.495 -0.99 0.495 -2 1 C-2 1.66 -2 2.32 -2 3 C-8.6 3 -15.2 3 -22 3 C-22 2.67 -22 2.34 -22 2 C-19.27123692 1.66304138 -16.54206837 1.33031571 -13.8125 1 C-13.04357422 0.90460938 -12.27464844 0.80921875 -11.48242188 0.7109375 C-7.63071189 0.24807106 -3.88829149 -0.12467468 0 0 Z " fill="#F3F3F4" transform="translate(166,209)"/>
<path d="M0 0 C0.99 0.33 1.98 0.66 3 1 C2.67 7.93 2.34 14.86 2 22 C1.67 22 1.34 22 1 22 C0.67 14.74 0.34 7.48 0 0 Z " fill="#F5F6F7" transform="translate(244,96)"/>
<path d="M0 0 C3.12905736 1.7731325 3.95588561 2.88309687 5.25 6.3125 C5.93446776 9.67779984 6.16673457 12.58194135 6 16 C2.04342667 12.04342667 0.87350381 5.4157236 0 0 Z " fill="#EFF2F4" transform="translate(258,64)"/>
<path d="M0 0 C3.11920338 0.33420036 3.95474254 0.94788534 6.0625 3.375 C6.701875 4.24125 7.34125 5.1075 8 6 C8.98230498 7.0173873 9.97469597 8.02596117 11 9 C10.01 9.33 9.02 9.66 8 10 C7.34 9.67 6.68 9.34 6 9 C6 8.34 6 7.68 6 7 C5.34 7 4.68 7 4 7 C3.34 5.35 2.68 3.7 2 2 C1.34 2 0.68 2 0 2 C0 1.34 0 0.68 0 0 Z " fill="#EEEFF1" transform="translate(110,165)"/>
<path d="M0 0 C0.33 0 0.66 0 1 0 C0.91288896 2.75150737 0.80600385 5.49981633 0.6875 8.25 C0.66494141 9.02730469 0.64238281 9.80460937 0.61914062 10.60546875 C0.41539044 14.93979093 0.22824376 17.78041105 -3 21 C-2.67286688 17.66602628 -2.33745476 14.3329436 -2 11 C-1.91621094 10.14277344 -1.83242187 9.28554687 -1.74609375 8.40234375 C-1.66488281 7.60957031 -1.58367187 6.81679687 -1.5 6 C-1.4278125 5.278125 -1.355625 4.55625 -1.28125 3.8125 C-1 2 -1 2 0 0 Z " fill="#F4F5F6" transform="translate(233,115)"/>
<path d="M0 0 C2.03120707 3.04681061 2.24659875 3.60118324 2.1953125 7.01171875 C2.18886719 7.76904297 2.18242187 8.52636719 2.17578125 9.30664062 C2.15902344 10.09232422 2.14226562 10.87800781 2.125 11.6875 C2.11597656 12.48478516 2.10695312 13.28207031 2.09765625 14.10351562 C2.07411585 16.069139 2.03824547 18.03460775 2 20 C1.01 20.33 0.02 20.66 -1 21 C-0.835 20.13375 -0.67 19.2675 -0.5 18.375 C0.39266231 12.30238178 0.07639812 6.12033868 0 0 Z " fill="#F1F3F3" transform="translate(167,102)"/>
<path d="M0 0 C1.47906892 -0.02689216 2.95827483 -0.04634621 4.4375 -0.0625 C5.26121094 -0.07410156 6.08492187 -0.08570312 6.93359375 -0.09765625 C9 0 9 0 10 1 C12.01594582 1.23427778 14.038474 1.41336124 16.0625 1.5625 C17.16722656 1.64628906 18.27195312 1.73007813 19.41015625 1.81640625 C20.26480469 1.87699219 21.11945313 1.93757813 22 2 C22 2.33 22 2.66 22 3 C14.24506486 3.09928082 6.68931285 3.06059488 -1 2 C-0.67 1.34 -0.34 0.68 0 0 Z " fill="#FAFBFD" transform="translate(54,78)"/>
<path d="M0 0 C2.64752004 2.57784846 4.94432065 4.91648098 7 8 C7 8.99 7 9.98 7 11 C6.34 11 5.68 11 5 11 C4.67 9.68 4.34 8.36 4 7 C3.34 7 2.68 7 2 7 C1.67 5.68 1.34 4.36 1 3 C0.34 3 -0.32 3 -1 3 C-0.67 2.01 -0.34 1.02 0 0 Z " fill="#EEF1F2" transform="translate(246,43)"/>
<path d="M0 0 C1.75 0.125 1.75 0.125 4 1 C6.25 4.0625 6.25 4.0625 8 7 C6.68 7.33 5.36 7.66 4 8 C2.66666667 5.33333333 1.33333333 2.66666667 0 0 Z " fill="#EEEFF0" transform="translate(231,31)"/>
<path d="M0 0 C2.64 0 5.28 0 8 0 C7.67 0.99 7.34 1.98 7 3 C4.36 3 1.72 3 -1 3 C-0.67 2.01 -0.34 1.02 0 0 Z " fill="#E1E6EB" transform="translate(12,111)"/>
<path d="M0 0 C0.66 0 1.32 0 2 0 C1.74445946 1.46109063 1.46999628 2.91888096 1.1875 4.375 C1.03667969 5.18710938 0.88585937 5.99921875 0.73046875 6.8359375 C0 9 0 9 -3 11 C-2.69078116 9.54096742 -2.37751201 8.08279278 -2.0625 6.625 C-1.88847656 5.81289062 -1.71445313 5.00078125 -1.53515625 4.1640625 C-1 2 -1 2 0 0 Z " fill="#E5E5E6" transform="translate(196,197)"/>
<path d="M0 0 C3.04846865 0.32956418 4.58429646 0.5694499 6.75 2.8125 C7.94998168 4.91246793 8.57691378 6.63071717 9 9 C5.20596616 7.73532205 4.93315707 6.38302487 3 3 C1.41754725 1.24850835 1.41754725 1.24850835 0 0 Z " fill="#EFF1F3" transform="translate(158,93)"/>
<path d="M0 0 C-0.99 1.32 -1.98 2.64 -3 4 C-5.31 3.67 -7.62 3.34 -10 3 C-7.28464405 0.28464405 -3.67870689 -1.83935344 0 0 Z " fill="#E4E4E4" transform="translate(156,226)"/>
<path d="M0 0 C0.33 0.66 0.66 1.32 1 2 C0.34 1.67 -0.32 1.34 -1 1 C-0.67 0.67 -0.34 0.34 0 0 Z M-2 2 C-1.34 2.33 -0.68 2.66 0 3 C0 4.32 0 5.64 0 7 C-2.31 6.67 -4.62 6.34 -7 6 C-7 5.67 -7 5.34 -7 5 C-5.35 5 -3.7 5 -2 5 C-2 4.01 -2 3.02 -2 2 Z " fill="#F2F2F3" transform="translate(107,76)"/>
<path d="M0 0 C0.66 0.66 1.32 1.32 2 2 C-0.3125 4.0625 -0.3125 4.0625 -3 6 C-3.99 5.67 -4.98 5.34 -6 5 C-2.25 1.125 -2.25 1.125 0 0 Z " fill="#E2E5E6" transform="translate(190,208)"/>
<path d="M0 0 C-1 2 -1 2 -4.0625 3.125 C-5.031875 3.41375 -6.00125 3.7025 -7 4 C-6.6875 2.0625 -6.6875 2.0625 -6 0 C-3 -1 -3 -1 0 0 Z " fill="#E3E3E3" transform="translate(164,222)"/>
<path d="M0 0 C-1.28610235 2.5722047 -2.33393981 3.00974907 -5 4 C-7.25 3.625 -7.25 3.625 -9 3 C-6.38997624 -0.48003168 -4.1689578 -0.27793052 0 0 Z " fill="#EDEFF0" transform="translate(173,178)"/>
<path d="M0 0 C2 3 2 3 1.625 6.1875 C1.41875 7.115625 1.2125 8.04375 1 9 C-1 7 -1 7 -1.1875 3.9375 C-1 1 -1 1 0 0 Z " fill="#F1F2F2" transform="translate(190,102)"/>
<path d="M0 0 C0.33 0.99 0.66 1.98 1 3 C-1.17424117 5.50037734 -2.73045798 6.43628586 -6 7 C-6 6.34 -6 5.68 -6 5 C-4.04072937 3.2856382 -2.04119788 1.61594832 0 0 Z " fill="#EDEFF2" transform="translate(124,55)"/>
<path d="M0 0 C1.65 1.65 3.3 3.3 5 5 C4.67 5.99 4.34 6.98 4 8 C2.35 6.35 0.7 4.7 -1 3 C-0.67 2.01 -0.34 1.02 0 0 Z " fill="#F0F1F2" transform="translate(209,35)"/>
<path d="" fill="#FEFEFE" transform="translate(0,0)"/>
</svg>
